<svg id="eed3bf71-60ac-4dd5-9baf-083416015b52" data-name="Layer 1" xmlns="http://www.w3.org/2000/svg" width="886.65322" height="655.0612" viewBox="0 0 886.65322 655.0612"><title>mobile_messages</title><ellipse cx="728.74667" cy="636.31956" rx="144.42094" ry="18.74165" fill="#e6e6e6"/><path d="M893.38619,693.534s7.76033,26.73,12.93388,33.6281,9.48485,18.10744,6.89807,19.832-7.76033,22.41873-.86226,23.281,22.41873-22.41873,23.281-30.17906,4.3113-35.35262,4.3113-35.35262,6.03581-24.14325-3.449-25.86777-24.14325-2.58677-24.14325-2.58677Z" transform="translate(-156.67339 -122.4694)" fill="#2f2e41"/><path d="M857.17131,721.98854s-11.20937,29.3168-13.79614,31.04132S831.30354,770.275,850.27324,770.275s29.3168-5.17355,29.3168-5.17355l6.03581-6.89807s0-18.10744-1.72451-20.69422,0-15.52066,0-15.52066Z" transform="translate(-156.67339 -122.4694)" fill="#2f2e41"/><path d="M780.43026,453.826s-13.79614,93.124-1.72451,123.303S802.849,615.93069,802.849,615.93069l91.39944,85.36363s28.45455-14.6584,25.86777-24.14325c0,0-6.03581-3.449-6.89807-6.03581s-12.07162-3.449-12.07162-3.449-5.17356-6.03582-5.17356-9.48485S851.1355,593.512,836.4771,589.20066c0,0-7.76034-9.48485-6.89808-11.20936s-2.58677-7.76033-2.58677-7.76033l8.62259-33.6281,54.32231-8.62259s22.41873-79.32783,3.449-85.36364S780.43026,453.826,780.43026,453.826Z" transform="translate(-156.67339 -122.4694)" fill="#2f2e41"/><path d="M888.21263,514.18413l1.72452,13.79615s0,36.21487-1.72452,39.66391-2.58678,8.62259,0,12.07162,6.89807,12.07163,5.17356,15.52066,3.449,100.8843-3.449,107.78237-4.3113,15.52066-3.449,16.38292-.86226,4.3113-.86226,4.3113-35.35261,6.03581-32.76583,0,2.58677-9.48485,4.31129-11.20937,0-4.31129,0-4.31129,2.58678-27.59229,0-29.31681S846.8242,594.37422,846.8242,593.512s-2.58677-2.58678-2.58677-6.03582,0-14.6584-4.3113-16.38292-3.449-43.9752-3.449-43.9752Z" transform="translate(-156.67339 -122.4694)" fill="#2f2e41"/><path d="M826.99225,206.35769s3.449,25.86777,13.79614,31.04132,17.24518,7.76033,17.24518,7.76033L849.411,275.33841l-3.449,25.86777H806.298L784.74156,283.961l6.89807-28.45455,3.449-5.17355s4.31129-18.9697.86225-25.00551S826.99225,206.35769,826.99225,206.35769Z" transform="translate(-156.67339 -122.4694)" fill="#ffb9b9"/><path d="M809.74707,269.30259l6.03581,11.20937s4.3113-15.52066,10.34711-18.10744,20.69421-6.89807,20.69421-10.3471-.86226-12.07163,2.58678-12.07163,37.07713,10.34711,42.25069,13.79614,6.03581,6.89807,6.03581,6.89807l-9.48485,99.15978s13.79614,46.562,9.48485,64.66942-7.76033,20.69422-18.10744,23.281-4.31129-6.03582-34.49036,2.58677-49.14876,6.03581-56.04683,6.03581-11.20936,3.449-12.93388,4.3113-.86226-4.3113,5.17355-12.07163,3.449-20.69421,3.449-20.69421-6.89807-22.41873-2.58678-31.04132,10.34711-19.832,5.17356-23.281-12.07163-29.31681-12.07163-29.31681l-18.9697-67.2562,38.80166-26.73s-1.72452,12.07162,4.31129,14.6584S809.74707,269.30259,809.74707,269.30259Z" transform="translate(-156.67339 -122.4694)" fill="#575a89"/><path d="M761.46057,276.20067H756.287s-8.62259,14.6584-8.62259,25.00551,4.3113,68.98071,4.3113,68.98071l25.00551,25.86777,6.03581-19.832,1.72452-43.9752Z" transform="translate(-156.67339 -122.4694)" fill="#575a89"/><path d="M775.25671,367.60011s-28.45454-7.76033-27.59229,4.3113,5.17356,26.73,18.9697,30.17906,18.10744-15.52066,18.10744-15.52066S786.46608,369.32463,775.25671,367.60011Z" transform="translate(-156.67339 -122.4694)" fill="#575a89"/><path d="M882.17682,407.264s-1.72452,39.66391-12.07163,43.9752L895.1107,457.275s12.07163-41.38843,10.34711-43.11294S882.17682,407.264,882.17682,407.264Z" transform="translate(-156.67339 -122.4694)" fill="#ffb9b9"/><path d="M742.84892,321.36239h16.15939a2.27559,2.27559,0,0,1,2.27559,2.27559v41.12367a2.77953,2.77953,0,0,1-2.77953,2.77953H743.35286a2.77953,2.77953,0,0,1-2.77953-2.77953V323.638A2.27559,2.27559,0,0,1,742.84892,321.36239Z" transform="translate(-231.76817 206.94387) rotate(-23.59797)" fill="#2f2e41"/><path d="M742.84892,321.36239h16.15939a2.27559,2.27559,0,0,1,2.27559,2.27559v41.12367a2.77953,2.77953,0,0,1-2.77953,2.77953H743.35286a2.77953,2.77953,0,0,1-2.77953-2.77953V323.638A2.27559,2.27559,0,0,1,742.84892,321.36239Z" transform="translate(-231.76817 206.94387) rotate(-23.59797)" opacity="0.1"/><path d="M743.35566,323.7882H757.444a2.27559,2.27559,0,0,1,2.27559,2.27559v39.02463a2.77953,2.77953,0,0,1-2.77953,2.77953H743.85959a2.77953,2.77953,0,0,1-2.77953-2.77953V326.06379a2.27559,2.27559,0,0,1,2.27559-2.27559Z" transform="translate(-232.36335 206.84727) rotate(-23.59797)" fill="#2f2e41"/><ellipse cx="745.31419" cy="339.85856" rx="4.14211" ry="4.19807" transform="translate(-230.39892 204.31202) rotate(-23.59795)" fill="#f2f2f2"/><path d="M888.64376,272.3205l5.60468-8.19146s20.69422,31.90358,18.9697,53.46006-3.449,22.41873-3.449,25.86776-4.3113,3.449,0,7.76033,10.3471,10.34711,6.89807,13.79615-6.03582,3.449-5.17356,7.76033a57.01221,57.01221,0,0,1,.86226,9.48485s-7.3292,14.22727-9.916,14.22727-27.16115,22.84986-27.16115,20.26308,2.58677-20.69421,2.58677-23.281.86226-11.20936,2.58678-13.79614,1.72452-1.72452,0-4.3113-1.72452,0-1.72452-2.58677.86226-6.03582-1.72451-6.89807-5.17356,0-3.449-4.3113,0-7.76033-.86226-7.76033-5.17355-.86226-2.58678-3.449-5.17355-52.59779-5.17355-52.59779S866.225,285.25438,888.64376,272.3205Z" transform="translate(-156.67339 -122.4694)" opacity="0.1"/><path d="M883.90134,253.78193l14.6584,6.89807s20.69421,31.90359,18.9697,53.46006-3.449,22.41873-3.449,25.86777-4.31129,3.449,0,7.76033,10.34711,10.34711,6.89807,13.79614-6.03581,3.449-5.17355,7.76033a57.01228,57.01228,0,0,1,.86226,9.48485s-7.76033,41.38843-10.34711,41.38843-26.73-4.3113-26.73-6.89807,2.58678-20.69422,2.58678-23.281.86226-11.20937,2.58678-13.79615,1.72451-1.72451,0-4.31129-1.72452,0-1.72452-2.58678.86226-6.03581-1.72452-6.89807-5.17355,0-3.449-4.31129,0-7.76034-.86225-7.76034-5.17356-.86225-2.58678-3.449-5.17355-52.5978-5.17355-52.5978S861.4826,266.71582,883.90134,253.78193Z" transform="translate(-156.67339 -122.4694)" fill="#575a89"/><path d="M753.06237,373.7584a3.61426,3.61426,0,0,1-4.157-1.87589c-3.96236-7.92253-14.69832-31.1598-4.69-31.87468,9.233-.6595,17.45712,17.34444,20.8144,25.84817a4.10765,4.10765,0,0,1-2.77644,5.48373Z" transform="translate(-156.67339 -122.4694)" fill="#ffb9b9"/><circle cx="646.17561" cy="76.12796" r="31.90358" fill="#ffb9b9"/><path d="M791.12583,180.2234a62.85212,62.85212,0,0,1-12.26475,2.8953c-3.14212.49024-6.8191.74125-9.02744-1.54708-2.16719-2.2457-1.81659-5.99168-.33836-8.74028s3.84626-4.90348,5.62269-7.46945c2.79389-4.03564,4.44281-9.38581,8.91037-11.41883a16.3903,16.3903,0,0,1,5.79859-1.08311c11.59287-.73911,23.65963-1.405,34.3956,3.03117a25.316,25.316,0,0,1,10.382,7.38693,27.56767,27.56767,0,0,1,4.14985,8.04652,52.51278,52.51278,0,0,1-9.44766,50.42489c-3.91263-3.52517-2.211-11.67073-7.16171-13.467-1.62421-.58931-3.46031-.17922-5.124-.64571-5.22862-1.4661-4.966-9.54653-9.31879-12.79321a8.31294,8.31294,0,0,1-2.47865-2.0369,5.06592,5.06592,0,0,1-.48223-2.56887c-.03182-3.0271,1.39012-10.71635-1.49749-12.79123C800.30454,175.33454,793.95018,179.2035,791.12583,180.2234Z" transform="translate(-156.67339 -122.4694)" fill="#2f2e41"/><path d="M773.75827,702.74794s-2.34533-50.44293-50.42446-44.57962" transform="translate(-156.67339 -122.4694)" fill="#e6e6e6"/><path d="M976.48488,584.61844s2.34533-50.44293,50.42446-44.57962" transform="translate(-156.67339 -122.4694)" fill="#e6e6e6"/><path d="M975.49127,745.54612c-.06055-.53125-5.77149-53.42871,17.35254-81.42286,8.53418-10.332,19.96972-16.11816,33.98828-17.19628l.1543,1.99414c-13.45508,1.03515-24.42286,6.57714-32.59766,16.47168-22.583,27.335-16.96973,79.40429-16.91113,79.92675Z" transform="translate(-156.67339 -122.4694)" fill="#e6e6e6"/><polygon points="68.348 169.893 455 169.893 455 296.824 440.354 296.824 440.354 330.021 407.157 296.824 68.348 296.824 68.348 169.893" fill="#e6e6e6"/><rect x="79.08798" y="182.2535" width="365.17167" height="101.54506" fill="#fff"/><rect x="108.45338" y="211.90023" width="175.8208" height="5.33572" fill="#00b0ff"/><rect x="108.45338" y="230.35817" width="306.44088" height="5.33572" fill="#e6e6e6"/><rect x="108.45338" y="248.81611" width="306.14082" height="5.33572" fill="#e6e6e6"/><polygon points="386.652 339.785 0 339.785 0 466.717 14.646 466.717 14.646 499.914 47.843 466.717 386.652 466.717 386.652 339.785" fill="#e6e6e6"/><rect x="10.74034" y="352.1462" width="365.17167" height="101.54506" fill="#fff"/><rect x="43.03493" y="382.76933" width="175.8208" height="5.33572" fill="#00b0ff"/><rect x="43.03493" y="401.22727" width="306.44088" height="5.33572" fill="#e6e6e6"/><rect x="43.03493" y="419.68521" width="306.14082" height="5.33572" fill="#e6e6e6"/><polygon points="386.652 0 0 0 0 126.931 14.646 126.931 14.646 160.129 47.843 126.931 386.652 126.931 386.652 0" fill="#e6e6e6"/><rect x="10.74034" y="12.36079" width="365.17167" height="101.54506" fill="#fff"/><rect x="43.03493" y="42.98392" width="175.8208" height="5.33572" fill="#00b0ff"/><rect x="43.03493" y="61.44186" width="306.44088" height="5.33572" fill="#e6e6e6"/><rect x="43.03493" y="79.8998" width="306.14082" height="5.33572" fill="#e6e6e6"/><rect x="615.30421" y="521.57379" width="2" height="110" fill="#e6e6e6"/><rect x="817.30421" y="410.57379" width="2" height="221" fill="#e6e6e6"/><circle cx="617.08488" cy="508.7277" r="16.41727" fill="#00b0ff"/><circle cx="819.81149" cy="395.28885" r="16.41727" fill="#00b0ff"/><circle cx="870.23596" cy="525.45432" r="16.41727" fill="#e6e6e6"/></svg>